PathFileType	4	(X/Y/Z)	Run_300 01
DataRate	CameraRate	NumFrames	NumMarkers	Units	OrigDataRate	OrigDataStartFrame	OrigNumFrames
120	120	4	42	mm	120	215	128
Frame#	Time	LASI			LPSI			RPSI			RTH1			RTH2			RTH3			LTH1			LTH2			LTH3			RTB1			RTB2			RTB3			LTB1			LTB2			RCAL			RTOE			RMT5			LCAL			LMT5			LACR			RACR			CLAV			C7			RUA1			RUA2			RUA3			RLEL			RMEL			LUA1			LUA2			LUA3			LLEL			LMEL			RFAsuperior			RFAradius			RFAulna			LFAsuperior			LFAradius			LFAulna			LTB3			LTOE			RASI			
		X1	Y1	Z1	X2	Y2	Z2	X3	Y3	Z3	X4	Y4	Z4	X5	Y5	Z5	X6	Y6	Z6	X7	Y7	Z7	X8	Y8	Z8	X9	Y9	Z9	X10	Y10	Z10	X11	Y11	Z11	X12	Y12	Z12	X13	Y13	Z13	X14	Y14	Z14	X15	Y15	Z15	X16	Y16	Z16	X17	Y17	Z17	X18	Y18	Z18	X19	Y19	Z19	X20	Y20	Z20	X21	Y21	Z21	X22	Y22	Z22	X23	Y23	Z23	X24	Y24	Z24	X25	Y25	Z25	X26	Y26	Z26	X27	Y27	Z27	X28	Y28	Z28	X29	Y29	Z29	X30	Y30	Z30	X31	Y31	Z31	X32	Y32	Z32	X33	Y33	Z33	X34	Y34	Z34	X35	Y35	Z35	X36	Y36	Z36	X37	Y37	Z37	X38	Y38	Z38	X39	Y39	Z39	X40	Y40	Z40	X41	Y41	Z41	X42	Y42	Z42	

212	1.925	774.242001	984.520371	-485.434333	600.324334	994.14764	-395.60596	602.487689	996.265059	-308.943422	738.556963	792.1195760000001	-195.648813	791.87918	673.744825	-208.635522	712.215761	553.121633	-199.922837	758.452768	843.100246	-528.484373	846.381339	751.442087	-509.212568	825.805403	602.342306	-500.700905	600.057611	416.338784	-255.591712	529.463298	459.711048	-211.516562	421.908803	437.374964	-282.022359	882.667057	374.785142	-408.197377	822.17013	276.118071	-455.669293	318.306505	547.8420589999999	-313.101233	243.152544	343.860837	-280.683718	222.787256	400.817809	-203.988374	673.052846	101.58587	-375.55787	863.061598	60.942384	-453.563076	736.760973	1421.074587	-568.137937	774.774332	1433.79319	-194.492347	852.171474	1384.614385	-364.278238	721.544282	1479.275039	-384.581037	749.015282	1335.413834	-121.090877	758.123481	1264.097299	-116.057346	670.4469790000001	1274.112128	-56.6976	693.128922	1187.482831	-25.713267	617.411021	1173.344415	-74.41683399999999	691.725629	1372.304553	-628.268654	617.580206	1322.450937	-623.872677	657.002516	1304.354764	-688.657956	607.818517	1224.530277	-751.149315	566.230843	1167.896381	-690.716274	758.205166	1163.285012	-74.348584	845.188211	1135.741614	-215.063766	823.746816	1074.6245	-193.396147	679.696781	1223.434865	-742.280805	818.517893	1201.105853	-636.038219	822.701444	1148.259946	-675.93393	816.183389	198.164608	-376.457026	890.254174	76.636315	-365.72146	775.964027	980.861001	-237.972856	
213	1.933333	771.706719	980.851763	-486.381165	597.103398	992.278132	-391.715156	599.418351	993.037404	-305.642188	741.2238589999999	788.547808	-194.95209	799.461698	672.208525	-207.77076	725.563706	549.420315	-198.438135	753.738216	841.106542	-528.804273	839.970446	747.6250199999999	-511.058978	818.471844	598.691065	-502.132761	616.646158	415.162797	-255.286726	547.165263	458.682934	-209.63385	438.719293	438.865263	-279.429207	869.2487640000001	371.480465	-409.427236	805.927262	274.144993	-456.48227	335.95991	551.995982	-308.723843	260.32437	347.550673	-278.979053	241.497202	403.0766	-201.146504	649.118949	102.397536	-375.521113	838.392842	60.43026	-453.839407	737.863055	1414.900714	-569.79748	772.459235	1429.538351	-194.161198	852.767275	1378.719234	-362.4898	722.248126	1475.492428	-386.260983	744.062105	1330.935039	-121.996419	749.887915	1259.124361	-118.906001	662.639834	1271.049271	-59.977315	683.631003	1183.952073	-27.695004	609.68869	1170.261087	-78.142591	693.683633	1363.218859	-629.871896	621.798626	1309.853786	-626.212398	663.1904939999999	1294.437953	-690.904524	618.690194	1213.579129	-753.999809	578.610411	1154.921276	-695.4370280000001	749.137756	1155.804108	-73.858469	840.52595	1121.287698	-209.972877	815.95118	1061.235509	-187.133289	690.467425	1213.899759	-743.499506	828.562097	1193.450802	-637.338469	834.51097	1141.268315	-678.22216	796.6815340000001	196.693619	-377.164095	865.91808	74.869708	-366.629079	773.535208	974.438485	-237.629896	
214	1.941667	768.85892	978.619374	-486.275047	594.468763	991.771386	-388.755356	597.113103	992.195521	-302.938596	743.419085	786.139743	-194.248635	807.636514	671.846258	-207.285387	739.729195	547.3756969999999	-197.078739	749.108381	839.287143	-528.764199	832.661743	743.7318770000001	-512.233686	807.3507070000001	594.358742	-502.800075	634.538364	414.676592	-255.878867	565.858287	457.509417	-207.866387	456.772432	439.410399	-277.310732	853.931823	366.552814	-411.056893	787.2796540000001	270.439675	-456.866842	353.307176	554.328029	-303.995226	279.131833	348.62368	-277.794715	261.65155	401.902488	-198.763937	624.45848	102.933407	-375.63344	813.278852	59.978392	-454.29779	738.824339	1409.608325	-571.1436200000001	769.667727	1426.43599	-193.965008	852.577708	1374.736821	-360.858987	723.0452780000001	1472.838548	-387.726507	738.818457	1327.893538	-122.820166	741.776243	1255.85476	-121.672692	654.272552	1269.036674	-64.073564	674.079575	1181.52276	-30.228008	602.000241	1167.97152	-82.562102	695.592417	1355.419107	-630.910677	626.849308	1297.525285	-626.972903	669.470715	1285.528579	-692.046667	630.429965	1203.461981	-755.686006	591.615068	1142.778415	-699.243625	739.905707	1149.943742	-74.14658	835.652156	1107.717006	-204.381307	807.551037	1049.025986	-180.764696	702.063432	1205.342459	-743.168095	839.3515599999999	1186.308368	-637.486372	846.848596	1135.129845	-679.606185	775.354977	194.073798	-377.525877	840.890454	73.543215	-367.208989	770.817591	970.087279	-236.542435	
215	1.95	765.877665	977.412899	-485.489192	592.335587	991.815272	-387.303476	595.463765	992.395211	-301.421524	745.357719	784.695635	-193.724191	816.341573	672.855914	-207.21709	754.522677	546.884489	-195.907316	744.35678	837.714145	-528.7667279999999	824.515232	739.609628	-513.081025	793.269099	589.9762469999999	-502.843981	653.537467	414.92334	-256.765782	585.2189949999999	456.344551	-206.234117	475.766112	439.012222	-275.583938	836.868906	360.477482	-412.718838	766.557566	265.941936	-457.039837	370.04549	554.745082	-299.161728	299.254697	347.14172	-277.090014	282.934305	397.556113	-196.913361	599.279207	103.270196	-375.950803	787.822282	59.724881	-454.822174	739.9738610000001	1405.3647	-572.022838	766.507833	1424.539575	-193.966186	851.8283750000001	1372.55778	-359.527969	723.4663389999999	1470.926588	-388.817777	733.137859	1326.287383	-123.540234	734.1256	1254.246859	-123.804548	645.428153	1268.115173	-68.90989399999999	664.48978	1180.400956	-33.099937	594.226628	1166.762418	-87.522109	698.004172	1348.980887	-631.446892	632.9736779999999	1286.180515	-626.250033	675.847887	1277.791095	-692.104741	642.608483	1194.36854	-756.222056	604.884302	1131.835743	-701.862032	730.714949	1146.073227	-74.981819	830.433393	1095.659811	-198.476759	798.601578	1038.685135	-174.44837	714.0719769999999	1197.865153	-741.706488	850.679445	1180.068451	-636.462766	859.493062	1130.133448	-679.966267	752.51621	191.004797	-377.636804	815.352083	72.97523200000001	-367.406158	768.19898	967.886607	-234.793862	
